<svg width="32" height="65" viewBox="0 0 32 65" fill="none" xmlns="http://www.w3.org/2000/svg">
<path d="M20.9583 0.947914C21.6011 0.949633 22.244 0.951352 22.9063 0.953122C23.5752 0.957591 24.2441 0.96206 24.9333 0.966664C25.9491 0.970274 25.9491 0.970274 26.9854 0.973956C28.657 0.98024 30.3285 0.989805 32 0.999998C32 4.696 32 8.392 32 12.2C27.8 12.4333 27.8 12.4333 26.4794 12.503C24.3709 12.5925 24.3709 12.5925 22.4 13.2667C21.8106 15.0349 21.6954 16.5755 21.5667 18.4333C21.4897 19.5443 21.4127 20.6553 21.3333 21.8C24.8533 21.8 28.3733 21.8 32 21.8C31.923 23.252 31.846 24.704 31.7667 26.2C31.7437 26.6539 31.7207 27.1078 31.697 27.5755C31.6665 28.1198 31.6665 28.1198 31.6354 28.675C31.6159 29.0437 31.5963 29.4123 31.5762 29.7922C31.4667 30.8667 31.4667 30.8667 30.9333 33C27.7653 33 24.5973 33 21.3333 33C21.3333 43.56 21.3333 54.12 21.3333 65C16.5813 65 11.8293 65 6.93333 65C6.93333 54.44 6.93333 43.88 6.93333 33C4.64533 33 2.35733 33 0 33C0 29.304 0 25.608 0 21.8C2.288 21.8 4.576 21.8 6.93333 21.8C6.91477 21.1242 6.89621 20.4484 6.87708 19.7521C6.86206 18.8458 6.8475 17.9396 6.83333 17.0333C6.81322 16.3687 6.81322 16.3687 6.79271 15.6906C6.74621 11.7075 7.49155 8.44422 9.7 5.1C12.9803 1.96553 16.4938 0.926855 20.9583 0.947914Z" fill="#020204"/>
</svg>
