<svg width="150" height="49" viewBox="0 0 150 49" fill="none" xmlns="http://www.w3.org/2000/svg">
<path d="M131.079 1.00041C131.605 1.00186 132.131 1.00331 132.672 1.00481C133.222 1.00859 133.771 1.01236 134.337 1.01626C134.891 1.01829 135.445 1.02032 136.017 1.02242C137.387 1.02774 138.758 1.03554 140.128 1.04443C141.549 6.50158 142.762 11.9892 143.909 17.5095C144.09 18.3764 144.27 19.2433 144.451 20.1101C144.827 21.9094 145.201 23.709 145.574 25.5087C146.053 27.8186 146.537 30.1275 147.021 32.4363C147.394 34.2179 147.765 36.0001 148.134 37.7824C148.311 38.6349 148.49 39.4873 148.669 40.3394C148.918 41.5222 149.162 42.7057 149.406 43.8895C149.481 44.2417 149.556 44.5939 149.633 44.9567C150.124 47.3748 150.124 47.3748 149.621 48.3794C146.041 48.3794 142.461 48.3794 138.772 48.3794C137.416 44.3221 137.416 44.3221 136.964 41.1664C131.892 41.1664 126.821 41.1664 121.595 41.1664C121.446 41.9103 121.297 42.6541 121.143 43.4205C120.546 45.0569 119.95 46.6933 119.335 48.3794C115.158 48.3794 110.982 48.3794 106.678 48.3794C106.529 48.0818 106.38 47.7843 106.226 47.4777C106.646 46.3228 107.098 45.2177 107.593 44.0949C107.743 43.746 107.894 43.3972 108.049 43.0377C108.377 42.2774 108.706 41.5177 109.037 40.7587C109.928 38.7169 110.807 36.6704 111.688 34.6244C111.871 34.1998 112.054 33.7753 112.243 33.3378C114.371 28.3948 116.426 23.4218 118.476 18.4459C119.505 15.947 120.545 13.4525 121.595 10.9622C121.753 10.5862 121.91 10.2101 122.073 9.8226C122.548 8.69605 123.03 7.57299 123.514 6.45062C123.658 6.10812 123.801 5.76563 123.949 5.41276C124.711 3.6717 125.279 2.43986 127.019 1.49524C128.483 1.00874 129.541 0.992924 131.079 1.00041ZM131.088 15.0195C130.312 17.1124 129.54 19.2063 128.77 21.3012C128.508 22.0138 128.245 22.7261 127.981 23.4382C127.602 24.4613 127.226 25.4855 126.85 26.5099C126.731 26.8283 126.613 27.1467 126.49 27.4748C126.008 28.7966 125.663 29.8302 125.663 31.2486C128.647 31.2486 131.63 31.2486 134.704 31.2486C134.41 27.7268 133.846 24.3157 133.15 20.8518C133.052 20.3384 132.954 19.825 132.853 19.296C132.756 18.8093 132.658 18.3227 132.559 17.8212C132.471 17.3801 132.384 16.939 132.295 16.4845C132.195 16.1498 132.095 15.8151 131.992 15.4703C131.693 15.3216 131.395 15.1728 131.088 15.0195Z" fill="#020204"/>
<path d="M0.452026 1.04443C3.29097 1.0215 6.12989 1.00575 8.96891 0.994905C9.93389 0.990382 10.8989 0.984238 11.8638 0.976415C13.2541 0.965429 14.6443 0.960352 16.0346 0.956384C16.6775 0.949404 16.6775 0.949404 17.3334 0.942282C20.1259 0.941815 22.6625 1.01768 25.0062 2.69799C25.9981 4.0714 26.3022 5.41466 26.6131 7.04583C26.7187 7.55669 26.7187 7.55669 26.8265 8.07787C27.0839 9.33833 27.3288 10.6009 27.5736 11.8638C27.7419 12.7162 27.9102 13.5685 28.0787 14.4208C29.0961 19.5746 30.1132 24.7287 30.9936 29.9078C31.105 30.7942 31.105 30.7942 31.6419 31.2486C32.8237 27.9615 34.0054 24.6743 35.1871 21.3872C35.5882 20.2715 35.9893 19.1557 36.3904 18.04C36.9706 16.4262 37.5508 14.8125 38.1309 13.1987C38.3071 12.7086 38.4833 12.2186 38.6648 11.7137C39.9429 8.15824 41.2167 4.60138 42.4905 1.04443C46.9656 1.04443 51.4406 1.04443 56.0513 1.04443C54.5258 5.6087 54.5258 5.6087 53.8891 7.13685C53.7447 7.48552 53.6003 7.8342 53.4515 8.19344C53.2211 8.74374 53.2211 8.74374 52.986 9.30515C52.8204 9.70385 52.6548 10.1026 52.4842 10.5133C51.9418 11.8187 51.3974 13.1233 50.853 14.4278C50.4732 15.3405 50.0937 16.2532 49.7142 17.1659C49.1222 18.5898 48.53 20.0137 47.9373 21.4373C46.5066 24.874 45.0822 28.3133 43.6612 31.754C43.2668 32.7084 42.8725 33.6627 42.4781 34.617C41.9075 35.998 41.3371 37.3791 40.7671 38.7603C40.2398 40.0381 39.7116 41.3155 39.1833 42.5928C38.9494 43.1605 38.9494 43.1605 38.7107 43.7397C38.5663 44.0886 38.4218 44.4375 38.2729 44.7969C38.1483 45.0987 38.0236 45.4006 37.8952 45.7116C37.5009 46.6158 37.0563 47.4975 36.6141 48.3794C32.4374 48.3794 28.2607 48.3794 23.9574 48.3794C23.0798 45.7538 22.2958 43.2465 21.6908 40.5667C21.5228 39.8403 21.3545 39.1139 21.1859 38.3876C21.0985 38.0091 21.0111 37.6307 20.921 37.2408C20.3486 34.7873 19.7484 32.3404 19.1516 29.8926C18.631 27.7506 18.1216 25.607 17.6355 23.4569C17.1619 21.3641 16.659 19.2803 16.136 17.1993C15.9433 16.4109 15.7611 15.6198 15.59 14.8264C14.6178 10.0328 14.6178 10.0328 11.4453 6.53802C9.65877 5.55355 7.81203 4.83412 5.87634 4.20009C5.56859 4.09509 5.26083 3.99008 4.94375 3.88189C3.30928 3.32834 1.67049 2.83047 0 2.39686C0.149169 1.95056 0.298337 1.50426 0.452026 1.04443Z" fill="#020204"/>
<path d="M109.39 2.39686C109.176 3.79654 108.958 5.19581 108.741 6.59502C108.649 7.19081 108.649 7.19081 108.556 7.79864C108.467 8.37177 108.467 8.37177 108.375 8.95648C108.321 9.30824 108.266 9.66 108.21 10.0224C108.034 10.9622 108.034 10.9622 107.582 12.3147C106.29 12.0731 105.079 11.7862 103.825 11.3849C101.919 10.9061 100.017 10.8466 98.0615 10.8214C97.6054 10.8095 97.6054 10.8095 97.1401 10.7975C94.8453 10.8 93.3016 11.258 91.3093 12.3147C90.7532 13.5871 90.7085 14.1859 91.2105 15.4768C91.8378 16.4961 92.3305 16.848 93.3717 17.4232C93.6926 17.6046 94.0135 17.7859 94.3441 17.9728C94.6851 18.1604 95.0262 18.3481 95.3776 18.5415C96.0781 18.9418 96.7779 19.3433 97.477 19.746C97.8159 19.9403 98.1549 20.1347 98.504 20.335C102.661 22.7409 105.279 25.0482 107.3 29.4454C108.196 33.737 107.293 37.3233 105.011 41.0255C101.949 45.3303 97.0408 47.5944 91.9575 48.6532C90.0744 48.9561 88.2134 49.0022 86.3088 48.9992C85.899 48.9995 85.4891 48.9997 85.0668 49C80.7333 48.9305 76.8769 47.9393 72.7763 46.5761C73.0097 43.0652 73.4311 39.6566 74.1323 36.2075C75.9154 36.2075 76.9153 36.4865 78.5679 37.081C83.4529 38.7522 88.037 39.0838 92.8632 37.1091C93.6489 36.6924 93.6489 36.6924 94.0215 35.7567C94.248 34.4615 94.248 34.4615 94.0215 33.0519C92.2259 30.8712 89.98 29.6871 87.5236 28.3465C83.0962 25.9284 79.3194 23.6655 77.7486 18.626C77.1516 14.3696 77.9069 10.9111 80.1588 7.28884C83.2305 3.24043 88.5949 1.28206 93.4441 0.338283C98.7471 -0.361417 104.567 -0.112562 109.39 2.39686Z" fill="#020204"/>
<path d="M60.5715 1.04443C64.7483 1.04443 68.925 1.04443 73.2283 1.04443C70.6924 16.665 68.1566 32.2855 65.5438 48.3794C61.5163 48.3794 57.4887 48.3794 53.3391 48.3794C52.8813 47.0095 52.8808 46.5499 53.1043 45.1791C53.1638 44.8036 53.2234 44.4282 53.2848 44.0414C53.3534 43.6311 53.4219 43.2207 53.4925 42.798C53.5623 42.3646 53.632 41.9313 53.7039 41.4849C53.9358 40.0492 54.1724 38.6144 54.4092 37.1796C54.5711 36.1842 54.7328 35.1887 54.8943 34.1932C55.2336 32.1056 55.5751 30.0182 55.9182 27.9312C56.3585 25.2529 56.795 22.5741 57.23 19.895C57.564 17.839 57.8994 15.7832 58.2351 13.7274C58.3965 12.7396 58.5576 11.7517 58.7185 10.7638C58.9435 9.3843 59.1701 8.00503 59.3971 6.62583C59.4638 6.2155 59.5305 5.80516 59.5993 5.38239C59.6614 5.00696 59.7235 4.63153 59.7876 4.24472C59.8411 3.91861 59.8946 3.5925 59.9497 3.2565C60.1195 2.39686 60.1195 2.39686 60.5715 1.04443Z" fill="#020204"/>
</svg>
