<svg width="54" height="60" viewBox="0 0 54 60" fill="none" xmlns="http://www.w3.org/2000/svg">
<path d="M17.625 16.875V22.5H36.375V16.875C36.375 11.6953 32.1797 7.5 27 7.5C21.8203 7.5 17.625 11.6953 17.625 16.875ZM10.125 22.5V16.875C10.125 7.55859 17.6836 0 27 0C36.3164 0 43.875 7.55859 43.875 16.875V22.5H45.75C49.8867 22.5 53.25 25.8633 53.25 30V52.5C53.25 56.6367 49.8867 60 45.75 60H8.25C4.11328 60 0.75 56.6367 0.75 52.5V30C0.75 25.8633 4.11328 22.5 8.25 22.5H10.125Z" fill="#020204"/>
</svg>
