<svg width="60" height="52" viewBox="0 0 60 52" fill="none" xmlns="http://www.w3.org/2000/svg">
<path d="M5.57812 30.2636L26.7539 50.0331C27.6328 50.8534 28.793 51.3104 30 51.3104C31.207 51.3104 32.3672 50.8534 33.2461 50.0331L54.4219 30.2636C57.9844 26.9472 60 22.2948 60 17.4315V16.7518C60 8.56044 54.082 1.57607 46.0078 0.228411C40.6641 -0.662214 35.2266 1.08388 31.4062 4.90419L30 6.31044L28.5938 4.90419C24.7734 1.08388 19.3359 -0.662214 13.9922 0.228411C5.91797 1.57607 0 8.56044 0 16.7518V17.4315C0 22.2948 2.01562 26.9472 5.57812 30.2636Z" fill="#020204"/>
</svg>
