<svg width="60" height="59" viewBox="0 0 60 59" fill="none" xmlns="http://www.w3.org/2000/svg">
<path d="M21.842 0.0821788C22.4808 0.0789331 23.1195 0.0756875 23.7776 0.0723435C25.1244 0.0665378 26.4713 0.0646947 27.8181 0.0652758C29.5256 0.0653746 31.2327 0.0520765 32.94 0.0352688C34.5916 0.0216756 36.243 0.0223848 37.8946 0.0212329C38.498 0.014226 39.1015 0.00721917 39.7233 0C45.2305 0.0284512 50.5438 0.991563 54.8225 4.61122C59.5258 9.49718 59.9046 15.0567 59.9164 21.478C59.9214 22.4201 59.9214 22.4201 59.9264 23.3813C59.9323 24.7057 59.9342 26.0301 59.9336 27.3545C59.9335 29.0335 59.947 30.7121 59.9641 32.391C59.978 34.015 59.9772 35.6389 59.9784 37.263C59.9855 37.8564 59.9927 38.4498 60 39.0612C59.9711 44.4766 58.9916 49.7014 55.3106 53.9088C50.3419 58.5337 44.6881 58.9062 38.158 58.9178C37.5192 58.9211 36.8805 58.9243 36.2224 58.9277C34.8756 58.9335 33.5287 58.9353 32.1819 58.9347C30.4744 58.9346 28.7673 58.9479 27.06 58.9647C25.4085 58.9783 23.757 58.9776 22.1054 58.9788C21.502 58.9858 20.8985 58.9928 20.2767 59C14.7695 58.9715 9.45624 58.0084 5.17746 54.3888C0.474195 49.5028 0.0954341 43.9433 0.0835716 37.522C0.080271 36.8939 0.0769703 36.2658 0.0735697 35.6187C0.0676656 34.2943 0.0657912 32.9699 0.0663822 31.6455C0.0664826 29.9665 0.0529582 28.2879 0.0358656 26.609C0.0220421 24.985 0.0227642 23.3611 0.0215927 21.737C0.0144671 21.1436 0.00734153 20.5502 0 19.9388C0.0289334 14.5234 1.00837 9.29863 4.68938 5.09117C9.65815 0.466292 15.3119 0.0938435 21.842 0.0821788ZM8.67927 9.02218C5.67534 13.3683 5.6266 17.7284 5.621 22.8055C5.61935 23.3302 5.6177 23.8549 5.616 24.3955C5.61349 25.5023 5.61232 26.6092 5.6124 27.716C5.61132 29.3979 5.60231 31.0797 5.59291 32.7616C5.59146 33.8411 5.59047 34.9207 5.59001 36.0003C5.58644 36.4976 5.58288 36.995 5.57921 37.5075C5.59375 42.0499 5.81941 47.0041 9.1751 50.4654C13.6007 53.4765 18.3121 53.4669 23.5019 53.4727C24.2665 53.4751 24.2665 53.4751 25.0465 53.4776C26.1204 53.4801 27.1942 53.4812 28.2681 53.4811C29.8968 53.4822 31.5254 53.4911 33.1541 53.5003C34.2029 53.5017 35.2517 53.5027 36.3005 53.5032C36.7805 53.5067 37.2605 53.5102 37.7551 53.5138C42.1722 53.4995 46.8424 53.4041 50.3291 50.4654C54.5877 46.2193 54.3721 41.2161 54.379 35.5851C54.3807 35.1073 54.3823 34.6296 54.384 34.1374C54.3865 33.1323 54.3877 32.1272 54.3876 31.1221C54.3887 29.6008 54.3977 28.0797 54.4071 26.5584C54.852 17.4883 54.852 17.4883 51.3207 9.50975C47.0658 5.39487 42.1268 5.53364 36.4981 5.52731C35.9884 5.52569 35.4787 5.52407 34.9535 5.5224C33.8796 5.51994 32.8058 5.51878 31.7319 5.51886C30.1032 5.5178 28.4746 5.50893 26.8459 5.4997C25.7971 5.49827 24.7483 5.4973 23.6995 5.49684C23.2195 5.49334 22.7395 5.48983 22.2449 5.48622C17.582 5.50132 12.2076 5.6392 8.67927 9.02218Z" fill="#020204"/>
<path d="M36.8022 15.6881C40.5034 17.8071 43.3977 20.8179 45.0299 24.7157C45.947 29.717 45.5277 33.8325 42.8916 38.2762C40.3641 41.5194 37.3645 43.3383 33.4708 44.6146C28.1497 45.0622 23.6749 44.2095 19.3881 40.9807C16.6234 38.3485 14.849 35.0568 14.4627 31.2884C14.4208 27.6163 14.6583 24.8596 16.6126 21.6989C16.7864 21.3947 16.9603 21.0905 17.1394 20.7771C21.2693 14.2907 29.9563 12.5845 36.8022 15.6881ZM23.4845 22.057C21.4092 24.2691 20.0707 26.3913 20.0892 29.5019C20.3509 32.5158 21.3643 34.808 23.5852 36.9354C26.0532 38.8678 28.6761 39.441 31.7935 39.1161C34.6358 38.4662 36.4712 37.281 38.2548 35.0118C39.6214 32.7204 40.1368 30.4847 39.7423 27.8468C38.9826 25.2007 37.66 22.9326 35.4541 21.2114C31.4657 19.3275 27.0733 19.1977 23.4845 22.057Z" fill="#020204"/>
<path d="M45.5257 41.5368C47.3541 41.6892 47.3541 41.6892 48.5627 42.451C49.6251 44.0807 49.5832 45.1533 49.3374 47.0524C48.5769 48.2333 48.0016 48.4602 46.6723 48.9417C44.937 49.023 44.2317 48.6085 42.8916 47.54C42.1479 46.4125 42.1479 46.4125 41.8999 45.1021C43.2786 41.7453 43.2786 41.7453 45.5257 41.5368Z" fill="#020204"/>
</svg>
