<svg width="60" height="60" viewBox="0 0 60 60" fill="none" xmlns="http://www.w3.org/2000/svg">
<path d="M22.3242 8.0625L26.4023 15H26.25H17.8125C15.2227 15 13.125 12.9023 13.125 10.3125C13.125 7.72266 15.2227 5.625 17.8125 5.625H18.0703C19.8164 5.625 21.4453 6.55078 22.3242 8.0625ZM7.5 10.3125C7.5 12 7.91016 13.5938 8.625 15H3.75C1.67578 15 0 16.6758 0 18.75V26.25C0 28.3242 1.67578 30 3.75 30H56.25C58.3242 30 60 28.3242 60 26.25V18.75C60 16.6758 58.3242 15 56.25 15H51.375C52.0898 13.5938 52.5 12 52.5 10.3125C52.5 4.61719 47.8828 0 42.1875 0H41.9297C38.1914 0 34.7227 1.98047 32.8242 5.20312L30 10.0195L27.1758 5.21484C25.2773 1.98047 21.8086 0 18.0703 0H17.8125C12.1172 0 7.5 4.61719 7.5 10.3125ZM46.875 10.3125C46.875 12.9023 44.7773 15 42.1875 15H33.75H33.5977L37.6758 8.0625C38.5664 6.55078 40.1836 5.625 41.9297 5.625H42.1875C44.7773 5.625 46.875 7.72266 46.875 10.3125ZM3.75 33.75V54.375C3.75 57.4805 6.26953 60 9.375 60H26.25V33.75H3.75ZM33.75 60H50.625C53.7305 60 56.25 57.4805 56.25 54.375V33.75H33.75V60Z" fill="#020204"/>
</svg>
