<svg width="68" height="48" viewBox="0 0 68 48" fill="none" xmlns="http://www.w3.org/2000/svg">
<path d="M24.3582 0.705169L24.3574 0.705169C23.1912 0.703672 21.9264 0.656883 20.6193 0.608528C20.1283 0.590362 19.6313 0.571975 19.1313 0.555686C17.2917 0.495754 15.3971 0.463447 13.5477 0.568424C9.84352 0.778679 6.40971 1.53644 3.99608 3.63392C2.20055 5.58829 1.39336 6.48264 0.97434 8.56311C0.536339 10.7378 0.536069 14.1607 0.541261 21.175C0.546487 22.5173 0.550866 23.8609 0.546464 25.2051L0.546463 25.2055C0.543617 25.9363 0.533683 26.6706 0.523727 27.4067C0.490977 29.8276 0.457981 32.2669 0.676162 34.6576C0.957887 37.7446 1.65608 40.6962 3.28937 43.3217C4.89517 44.9287 5.61966 45.6324 7.03975 46.0413C8.54051 46.4734 10.7984 46.5697 15.5111 46.7623C15.5118 46.7623 15.5125 46.7623 15.5132 46.7624L16.7207 46.8L16.7228 46.8C21.6386 46.9736 26.5552 47.0147 31.4799 47.0129C33.0655 47.0103 34.6517 47.0081 36.2382 47.0103H36.2383C37.8105 47.0129 39.6778 47.1145 41.6893 47.224C42.1408 47.2485 42.5996 47.2735 43.064 47.2978C45.6062 47.431 48.33 47.5462 51.0024 47.4814C53.6762 47.4166 56.2807 47.1717 58.5853 46.5916C60.8655 46.0177 62.8216 45.1234 64.2632 43.7798C65.8811 41.0807 66.6407 39.7936 67.0272 37.6638C67.425 35.4721 67.425 32.4001 67.4205 26.1118C67.4153 24.7657 67.4109 23.4181 67.4153 22.07V22.0697C67.4186 21.2389 67.4371 20.3817 67.4561 19.5076C67.5054 17.2345 67.5572 14.8472 67.3476 12.5132C67.0593 9.30339 66.2809 6.29609 64.3797 3.97417C63.4864 3.11376 62.8572 2.51218 62.153 2.06341C61.4602 1.62194 60.6766 1.31874 59.4755 1.11302C57.0259 0.69348 52.9725 0.695467 44.7182 0.70374C43.9636 0.704708 43.2088 0.705028 42.4541 0.704757L42.4539 0.704757C40.8576 0.7037 39.2615 0.703209 37.6655 0.704705L24.3582 0.705169ZM24.3582 0.705169C25.1329 0.704892 25.9076 0.704493 26.6823 0.703979L24.3582 0.705169ZM31.5195 0.706171L31.5195 0.706171C29.9071 0.704238 28.2947 0.703379 26.6824 0.703979L31.5195 0.706171ZM31.5195 0.706171C33.5683 0.708509 35.617 0.70716 37.6654 0.704705L31.5195 0.706171ZM27.1827 13.7147L26.7154 13.7453V14.2136V14.2477V14.2819V14.316V14.3501V14.3842V14.4184V14.4525V14.4866V14.5207V14.5549V14.589V14.6231V14.6572V14.6913V14.7255V14.7596V14.7937V14.8278V14.862V14.8961V14.9302V14.9643V14.9985V15.0326V15.0667V15.1008V15.135V15.1691V15.2032V15.2374V15.2715V15.3056V15.3397V15.3739V15.408V15.4421V15.4762V15.5104V15.5445V15.5786V15.6128V15.6469V15.681V15.7152V15.7493V15.7834V15.8176V15.8517V15.8858V15.9199V15.9541V15.9882V16.0224V16.0565V16.0906V16.1248V16.1589V16.193V16.2272V16.2613V16.2954V16.3296V16.3637V16.3979V16.432V16.4661V16.5003V16.5344V16.5686V16.6027V16.6368V16.671V16.7051V16.7393V16.7734V16.8076V16.8417V16.8759V16.91V16.9442V16.9783V17.0125V17.0466V17.0808V17.1149V17.1491V17.1832V17.2174V17.2515V17.2857V17.3198V17.354V17.3881V17.4223V17.4565V17.4906V17.5248V17.5589V17.5931V17.6273V17.6614V17.6956V17.7298V17.7639V17.7981V17.8323V17.8664V17.9006V17.9348V17.9689V18.0031V18.0373V18.0715V18.1056V18.1398V18.174V18.2082V18.2423V18.2765V18.3107V18.3449V18.3791V18.4132V18.4474V18.4816V18.5158V18.55V18.5842V18.6184V18.6525V18.6867V18.7209V18.7551V18.7893V18.8235V18.8577V18.8919V18.9261V18.9603V18.9945V19.0287V19.0629V19.0971V19.1313V19.1655V19.1997V19.2339V19.2681V19.3023V19.3366V19.3708V19.405V19.4392V19.4734V19.5076V19.5419V19.5761V19.6103V19.6445V19.6787V19.713V19.7472V19.7814V19.8156V19.8499V19.8841V19.9183V19.9526V19.9868V20.021V20.0553V20.0895V20.1238V20.158V20.1922V20.2265V20.2607V20.295V20.3292V20.3635V20.3977V20.432V20.4662V20.5005V20.5348V20.569V20.6033V20.6375V20.6718V20.7061V20.7403V20.7746V20.8089V20.8431V20.8774V20.9117V20.946V20.9802V21.0145V21.0488V21.0831V21.1174V21.1517V21.1859V21.2202V21.2545V21.2888V21.3231V21.3574V21.3917V21.426V21.4603V21.4946V21.5289V21.5632V21.5975V21.6318V21.6661V21.7004V21.7348V21.7691V21.8034V21.8377V21.872V21.9063V21.9407V21.975V22.0093V22.0437V22.078V22.1123V22.1467V22.181V22.2153V22.2497V22.284V22.3184V22.3527V22.387V22.4214V22.4557V22.4901V22.5245V22.5588V22.5932V22.6275V22.6619V22.6963V22.7306V22.765V22.7994V22.8337V22.8681V22.9025V22.9369V22.9713V23.0056V23.04V23.0744V23.1088V23.1432V23.1776V23.212V23.2464V23.2808V23.3152V23.3496V23.384V23.4184V23.4528V23.4872V23.5216V23.556V23.5905V23.6249V23.6593V23.6937V23.7282V23.7626V23.797V23.8315V23.8659V23.9003V23.9348V23.9692V24.0037V24.0381V24.0726V24.107V24.1415V24.1759V24.2104V24.2448V24.2793V24.3138V24.3482V24.3827V24.4172V24.4516V24.4861V24.5206V24.5551V24.5896V24.6241V24.6585V24.693V24.7275V24.762V24.7965V24.831V24.8655V24.9V24.9345V24.9691V25.0036V25.0381V25.0726V25.1071V25.1416V25.1762V25.2107V25.2452V25.2798V25.3143V25.3488V25.3834V25.4179V25.4525V25.487V25.5216V25.5561V25.5907V25.6252V25.6598V25.6944V25.7289V25.7635V25.7981V25.8327V25.8672V25.9018V25.9364V25.971V26.0056V26.0402V26.0748V26.1094V26.144V26.1786V26.2132V26.2478V26.2824V26.317V26.3516V26.3862V26.4209V26.4555V26.4901V26.5247V26.5594V26.594V26.6286V26.6633V26.6979V26.7326V26.7672V26.8019V26.8365V26.8712V26.9059V26.9405V26.9752V27.0099V27.0445V27.0792V27.1139V27.1486V27.1833V27.2179V27.2526V27.2873V27.322V27.3567V27.3914V27.4261V27.4609V27.4956V27.5303V27.565V27.5997V27.6344V27.6692V27.7039V27.7386V27.7734V27.8081V27.8429V27.8776V27.9124V27.9471V27.9819V28.0166V28.0514V28.0862V28.1209V28.1557V28.1905V28.2252V28.26V28.2948V28.3296V28.3644V28.3992V28.434V28.4688V28.5036V28.5384V28.5732V28.608V28.6428V28.6777V28.7125V28.7473V28.7821V28.817V28.8518V28.8867V28.9215V28.9563V28.9912V29.0261V29.0609V29.0958V29.1306V29.1655V29.2004V29.2353V29.2701V29.305V29.3399V29.3748V29.4097V29.4446V29.4795V29.5144V29.5493V29.5842V29.6191V29.654V29.6889V29.7239V29.7588V29.7937V29.8287V29.8636V29.8985V29.9335V29.9684V30.0034V30.0383V30.0733V30.1083V30.1432V30.1782V30.2132V30.2482V30.2831V30.3181V30.3531V30.3881V30.4231V30.4581V30.4931V30.5281V30.5631V30.5981V30.6332V30.6682V30.7032V30.7382V30.7733V30.8083V30.8434V30.8784V30.9134V30.9485V30.9836V31.0186V31.0537V31.0888V31.1238V31.1589V31.194V31.2291V31.2642V31.2992V31.3343V31.3694V31.4045V31.4396V31.4748V31.5099V31.545V31.5801V31.6152V31.6504V31.6855V31.7207V31.7558V31.7909V31.8261V31.8612V32.5541L27.3729 32.3358C29.4933 31.6318 29.5084 31.626 31.5063 30.7391L31.5156 30.735L31.5248 30.7305L32.4157 30.2905L32.4183 30.2892L33.3532 29.8208L33.3544 29.8202L34.3326 29.3333L34.3329 29.3331C35.0122 28.9943 35.6911 28.6547 36.3695 28.3143C37.4096 27.7931 38.452 27.2762 39.4957 26.7591L39.4972 26.7584C40.1572 26.4285 40.8171 26.0984 41.4769 25.768C41.4773 25.7678 41.4777 25.7676 41.478 25.7674L42.4154 25.3039L42.4683 25.2804C43.2061 24.9516 43.6546 24.7518 44.0321 24.4635C44.4115 24.1738 44.7098 23.802 45.1956 23.1964L45.2367 23.1451L45.6196 22.668L45.0757 22.3877C43.077 21.358 41.0782 20.3285 39.0793 19.2991L37.0417 18.2495C36.0626 17.7451 35.0834 17.2408 34.1042 16.7366C34.1042 16.7366 34.1041 16.7366 34.1041 16.7365L33.1915 16.2662L33.1913 16.2661C32.6269 15.9756 32.0623 15.6857 31.4972 15.3966C30.7788 15.0281 30.0623 14.6553 29.3446 14.2815C29.3258 14.2708 29.3072 14.2602 29.2888 14.2498C28.8524 14.0018 28.5508 13.8304 28.2516 13.7502C27.9342 13.665 27.6323 13.685 27.2407 13.7109C27.2216 13.7121 27.2023 13.7134 27.1827 13.7147Z" fill="#020204" stroke="#DDCFAA"/>
</svg>
