<svg width="30" height="31" viewBox="0 0 30 31" fill="none" xmlns="http://www.w3.org/2000/svg">
<path d="M21.677 16.9584C22.7708 16.9584 23.7333 16.3604 24.2291 15.4563L29.4499 5.99169C29.9895 5.02919 29.2895 3.83335 28.1812 3.83335H6.59784L5.227 0.916687H0.458252V3.83335H3.37492L8.62492 14.9021L6.65617 18.4604C5.59159 20.4146 6.99159 22.7917 9.20825 22.7917H26.7083V19.875H9.20825L10.8124 16.9584H21.677ZM7.98325 6.75002H25.702L21.677 14.0417H11.4395L7.98325 6.75002ZM9.20825 24.25C7.60409 24.25 6.30617 25.5625 6.30617 27.1667C6.30617 28.7709 7.60409 30.0834 9.20825 30.0834C10.8124 30.0834 12.1249 28.7709 12.1249 27.1667C12.1249 25.5625 10.8124 24.25 9.20825 24.25ZM23.7916 24.25C22.1874 24.25 20.8895 25.5625 20.8895 27.1667C20.8895 28.7709 22.1874 30.0834 23.7916 30.0834C25.3958 30.0834 26.7083 28.7709 26.7083 27.1667C26.7083 25.5625 25.3958 24.25 23.7916 24.25Z" fill="black"/>
</svg>
