<svg width="60" height="54" viewBox="0 0 60 54" fill="none" xmlns="http://www.w3.org/2000/svg">
<path d="M59.9792 26.6146C59.9792 28.4896 58.4167 29.9583 56.6458 29.9583H53.3125L53.3854 46.6458C53.3854 46.9271 53.3646 47.2083 53.3333 47.4896V49.1667C53.3333 51.4688 51.4688 53.3333 49.1667 53.3333H47.5C47.3854 53.3333 47.2708 53.3333 47.1563 53.3229C47.0104 53.3333 46.8646 53.3333 46.7188 53.3333H43.3333H40.8333C38.5312 53.3333 36.6667 51.4688 36.6667 49.1667V46.6667V40C36.6667 38.1562 35.1771 36.6667 33.3333 36.6667H26.6667C24.8229 36.6667 23.3333 38.1562 23.3333 40V46.6667V49.1667C23.3333 51.4688 21.4688 53.3333 19.1667 53.3333H16.6667H13.3438C13.1875 53.3333 13.0312 53.3229 12.875 53.3125C12.75 53.3229 12.625 53.3333 12.5 53.3333H10.8333C8.53125 53.3333 6.66667 51.4688 6.66667 49.1667V37.5C6.66667 37.4062 6.66667 37.3021 6.67708 37.2083V29.9583H3.33333C1.45833 29.9583 0 28.5 0 26.6146C0 25.6771 0.3125 24.8438 1.04167 24.1146L27.75 0.833333C28.4792 0.104167 29.3125 0 30.0417 0C30.7708 0 31.6042 0.208333 32.2292 0.729167L58.8333 24.1146C59.6667 24.8438 60.0833 25.6771 59.9792 26.6146Z" fill="#020204"/>
</svg>
