<svg width="182" height="46" viewBox="0 0 182 46" fill="none" xmlns="http://www.w3.org/2000/svg">
<path d="M8.5306 0.0713923C8.88553 0.0680367 9.24045 0.0646812 9.60613 0.0612239C10.1851 0.0589974 10.1851 0.0589974 10.7757 0.0567259C11.3729 0.0537396 11.3729 0.0537396 11.9821 0.050693C12.8283 0.0473869 13.6744 0.0451082 14.5206 0.0437648C15.8017 0.0404034 17.0827 0.0295851 18.3638 0.0185249C19.1875 0.0162413 20.0111 0.0144086 20.8348 0.0130676C21.2129 0.00875532 21.5909 0.004443 21.9804 0C26.2124 0.0120788 30.3254 0.620262 33.4629 3.58213C35.3758 5.60139 36.0069 7.30803 36.0942 10.0818C36.2114 11.9829 36.456 13.0254 37.7374 14.4476C37.9719 14.3323 38.2064 14.2171 38.448 14.0983C39.8395 18.2021 38.6954 23.2853 36.8589 27.0444C35.1255 30.0053 32.8098 31.9032 29.477 32.915C27.5084 33.3684 25.5304 33.4915 23.5148 33.5835C22.4404 33.6155 22.4404 33.6155 21.3941 34.0065C21.3459 34.329 21.2977 34.6515 21.248 34.9838C21.0667 36.1814 20.8816 37.3782 20.6937 38.5748C20.6132 39.0926 20.5344 39.6106 20.4571 40.1288C20.3456 40.8742 20.2286 41.6186 20.1104 42.3629C20.0415 42.8111 19.9727 43.2592 19.9018 43.7209C19.4929 45.3226 19.4929 45.3226 18.5518 45.8815C17.5885 46.006 17.5885 46.006 16.4395 45.9961C16.0278 45.9943 15.616 45.9925 15.1918 45.9907C14.7618 45.9835 14.3317 45.9763 13.8886 45.9688C13.2394 45.9661 13.2394 45.9661 12.5771 45.9634C9.36896 45.9353 9.36896 45.9353 8.95901 45.5323C8.94447 44.7174 8.94394 43.9022 8.95901 43.0874C8.57435 43.0901 8.57435 43.0901 8.18191 43.0929C7.02719 43.1002 5.87248 43.1047 4.71775 43.1092C4.11217 43.1136 4.11217 43.1136 3.49436 43.1181C3.1108 43.1192 2.72723 43.1203 2.33204 43.1215C1.79898 43.1242 1.79898 43.1242 1.25516 43.127C0.432078 43.0874 0.432078 43.0874 0.0767892 42.7381C-0.223992 37.6064 0.401009 32.6775 1.2176 27.6201C1.33577 26.8652 1.45355 26.1103 1.57095 25.3554C1.81557 23.7896 2.0637 22.2244 2.31469 20.6596C2.63644 18.653 2.95098 16.6453 3.26319 14.6372C3.50487 13.0858 3.74933 11.5347 3.99474 9.98385C4.11182 9.24297 4.22825 8.50199 4.34402 7.76091C4.50541 6.73179 4.67029 5.70328 4.83624 4.67487C4.88352 4.36955 4.9308 4.06423 4.97951 3.74966C5.02533 3.47032 5.07114 3.19097 5.11835 2.90316C5.157 2.66079 5.19564 2.41842 5.23546 2.1687C5.40612 1.52473 5.40612 1.52473 6.1167 0.476937C6.98587 0.0497223 7.55883 0.0788035 8.5306 0.0713923Z" fill="#020204"/>
<path d="M61.3447 10.7787C61.6012 10.7837 61.8577 10.7888 62.1219 10.7939C62.3888 10.7942 62.6558 10.7946 62.9308 10.7949C63.4964 10.797 64.0621 10.8025 64.6277 10.8112C65.4839 10.8238 66.3396 10.8255 67.1959 10.8253C74.9421 10.8598 74.9421 10.8598 77.8851 13.3998C79.4572 15.7663 79.2502 18.5196 78.7178 21.2173C77.9459 24.0368 76.8544 26.232 74.3003 27.837C72.6257 28.7015 71.0818 29.141 69.1888 29.215C68.8921 29.228 68.5953 29.2411 68.2895 29.2546C67.6668 29.2792 67.0442 29.3038 66.4215 29.3282C66.1256 29.3413 65.8297 29.3543 65.5249 29.3678C65.2549 29.3784 64.9848 29.389 64.7066 29.3999C63.9986 29.429 63.9986 29.429 63.3182 29.8153C63.0965 30.54 63.0965 30.54 62.9629 31.417C62.9043 31.7421 62.8457 32.0671 62.7853 32.402C62.6974 32.9153 62.6974 32.9153 62.6077 33.4389C62.4915 34.1115 62.3732 34.7836 62.2524 35.4554C62.1754 35.9047 62.1754 35.9047 62.0969 36.3632C61.8971 37.1499 61.8971 37.1499 61.1865 38.1977C60.5188 38.3166 60.5188 38.3166 59.7182 38.3C59.4319 38.2966 59.1457 38.2932 58.8508 38.2898C58.5517 38.281 58.2526 38.2722 57.9445 38.2632C57.4918 38.2561 57.4918 38.2561 57.0299 38.2488C56.2836 38.2365 55.5374 38.2177 54.7913 38.1977C54.3913 36.7239 54.4982 35.5632 54.7375 34.063C54.7921 33.7134 54.7921 33.7134 54.8477 33.3568C54.9682 32.59 55.0933 31.8241 55.2188 31.0582C55.3045 30.5237 55.3901 29.9893 55.4755 29.4548C55.655 28.3362 55.8369 27.218 56.0204 26.1C56.2551 24.6683 56.4832 23.2357 56.7095 21.8027C56.8847 20.6994 57.0636 19.5966 57.2437 18.494C57.3293 17.966 57.4137 17.4378 57.4969 16.9094C57.6136 16.1706 57.7355 15.4329 57.8588 14.6951C57.9269 14.2754 57.9951 13.8556 58.0653 13.4231C58.5875 11.4175 59.2106 10.7979 61.3447 10.7787ZM65.0947 17.2417C64.8952 17.9157 64.8952 17.9157 64.7921 18.7275C64.7463 19.0257 64.7005 19.324 64.6533 19.6313C64.6085 19.9449 64.5636 20.2585 64.5173 20.5816C64.4697 20.8965 64.4221 21.2114 64.373 21.5359C64.2554 22.3162 64.1408 23.0967 64.0288 23.8778C66.3011 23.9781 68.1031 24.0525 70.0687 22.83C70.8545 21.5507 71.1486 20.7441 71.0902 19.25C70.7572 18.2211 70.5705 17.8879 69.7134 17.2417C68.7676 17.0266 68.7676 17.0266 67.7371 16.9798C67.2198 16.9392 67.2198 16.9392 66.6921 16.8979C65.8051 16.8266 65.8051 16.8266 65.0947 17.2417Z" fill="#020204"/>
<path d="M133.137 10.7939C133.524 10.7944 133.524 10.7944 133.92 10.7949C134.467 10.797 135.014 10.8025 135.56 10.8112C136.388 10.8238 137.215 10.8255 138.042 10.8253C141.866 10.8429 145.515 10.876 148.588 13.3998C150.129 15.2937 149.883 17.7324 149.653 20.0358C149.083 22.9853 148.15 25.4316 145.745 27.3704C143.889 28.5371 142.092 29.129 139.891 29.215C139.595 29.228 139.298 29.2411 138.992 29.2545C138.369 29.2792 137.747 29.3038 137.124 29.3282C136.828 29.3413 136.532 29.3543 136.227 29.3678C135.957 29.3784 135.687 29.3889 135.409 29.3998C134.701 29.429 134.701 29.429 134.021 29.8153C133.793 30.62 133.793 30.62 133.653 31.5944C133.593 31.9541 133.533 32.3138 133.47 32.6845C133.41 33.0631 133.35 33.4417 133.288 33.8318C133.167 34.5779 133.044 35.3237 132.92 36.0693C132.867 36.4018 132.814 36.7343 132.759 37.0769C132.6 37.8484 132.6 37.8484 132.244 38.1977C131.741 38.2279 131.237 38.2351 130.733 38.2318C130.43 38.2307 130.126 38.2295 129.813 38.2284C129.494 38.2254 129.176 38.2225 128.847 38.2195C128.526 38.2179 128.206 38.2163 127.876 38.2147C127.082 38.2106 126.288 38.2048 125.494 38.1977C125.095 36.7254 125.199 35.5622 125.434 34.063C125.488 33.7134 125.488 33.7134 125.543 33.3568C125.662 32.59 125.785 31.8241 125.909 31.0582C125.994 30.5237 126.078 29.9893 126.163 29.4548C126.341 28.3362 126.521 27.218 126.703 26.1C126.936 24.6685 127.161 23.2358 127.383 21.8027C127.555 20.6992 127.733 19.5965 127.912 18.494C127.997 17.9661 128.081 17.4379 128.162 16.9094C128.276 16.1703 128.398 15.4328 128.521 14.6951C128.588 14.2754 128.656 13.8556 128.725 13.4231C129.437 11.0535 130.828 10.747 133.137 10.7939ZM135.89 17.2963C134.67 19.0498 134.618 21.8172 134.731 23.8778C136.998 23.9988 138.815 24.0464 140.771 22.83C141.686 21.4127 141.892 20.7161 141.615 19.0535C141.213 17.8596 141.213 17.8596 140.061 17.2417C139.207 17.0431 139.207 17.0431 138.284 16.9579C137.976 16.9197 137.669 16.8814 137.352 16.842C136.502 16.8231 136.502 16.8231 135.89 17.2963Z" fill="#020204"/>
<path d="M158.647 19.5993C159.107 19.5903 159.567 19.5812 160.042 19.572C161.458 19.6934 162.293 20.0349 163.51 20.7344C163.744 20.8496 163.979 20.9649 164.22 21.0836C164.455 20.7379 164.689 20.3921 164.931 20.0358C165.91 19.9394 166.796 19.9057 167.773 19.9267C168.035 19.9256 168.297 19.9244 168.567 19.9233C170.521 19.9426 170.521 19.9426 171.326 20.7344C171.4 23.9885 170.773 27.3161 170.244 30.5229C170.125 31.244 170.014 31.9658 169.902 32.6879C169.827 33.1534 169.751 33.6189 169.675 34.0842C169.608 34.4976 169.541 34.9109 169.473 35.3368C169.185 36.4898 168.878 37.2665 168.128 38.1977C167.453 38.3959 167.453 38.3959 166.703 38.3682C166.434 38.3626 166.165 38.357 165.888 38.3512C165.469 38.3292 165.469 38.3292 165.042 38.3068C164.759 38.2989 164.475 38.2911 164.184 38.2829C163.485 38.2624 162.787 38.2311 162.089 38.1977C161.913 37.5061 161.913 37.5061 161.733 36.8006C161.345 37.0239 160.957 37.2472 160.556 37.4773C158.006 38.9436 154.799 38.9802 151.943 38.345C149.946 37.5045 148.841 35.8681 147.877 34.0065C146.883 30.9548 147.537 27.7411 148.943 24.9256C151.42 21.4433 154.287 19.6501 158.647 19.5993ZM155.227 26.8684C154.213 28.3083 154.083 29.4833 154.272 31.2124C154.711 32.2047 155.074 32.7565 155.938 33.4171C157.747 33.946 159.097 33.9052 160.756 33.0897C162.211 31.8545 162.973 30.7526 163.532 28.9421C163.618 27.6621 163.618 27.6621 162.755 26.5627C161.537 25.4433 160.726 25.0225 159.091 24.8164C157.423 25.0164 156.345 25.6507 155.227 26.8684Z" fill="#020204"/>
<path d="M88.3661 19.5774C88.8168 19.5716 89.2674 19.5657 89.7318 19.5597C91.1146 19.6948 91.9599 20.0754 93.1625 20.7344C93.397 20.7344 93.6315 20.7344 93.8731 20.7344C94.1076 20.5039 94.3421 20.2733 94.5837 20.0358C95.5462 19.9665 96.4642 19.9386 97.426 19.9485C97.8189 19.9445 97.8189 19.9445 98.2198 19.9403C100.178 19.9474 100.178 19.9474 100.979 20.7344C101.1 23.9772 100.27 27.3817 99.725 30.5754C99.5782 31.4407 99.4364 32.3067 99.2947 33.1729C99.2018 33.7246 99.1086 34.2762 99.0151 34.8278C98.9732 35.0861 98.9314 35.3444 98.8883 35.6105C98.5732 37.4191 98.5732 37.4191 97.7813 38.1977C96.7594 38.2763 95.7829 38.3109 94.7613 38.3068C94.4824 38.3124 94.2035 38.3181 93.9161 38.3239C93.107 38.3246 93.107 38.3246 91.7414 38.1977C91.5069 37.8519 91.2724 37.5061 91.0308 37.1499C90.832 37.2507 90.6332 37.3516 90.4285 37.4555C87.6176 38.7349 84.643 39.1327 81.617 38.3041C79.6148 37.4186 78.3987 36.064 77.4188 34.1375C76.6304 30.3328 77.2611 26.881 79.3729 23.594C81.6046 20.7771 84.828 19.588 88.3661 19.5774ZM84.7022 26.9557C83.8676 28.1512 83.5697 28.7236 83.5697 30.1646C83.9976 32.041 83.9976 32.041 85.2893 33.3816C86.6141 33.8574 87.866 33.8471 89.2543 33.6572C90.9665 32.8315 91.942 31.8329 92.8072 30.1646C93.0266 28.6551 92.9135 27.9247 92.2077 26.5627C91.1322 25.3341 90.3508 25.019 88.7436 24.8164C86.9902 25.0266 85.9374 25.7414 84.7022 26.9557Z" fill="#020204"/>
<path d="M121.433 19.7903C121.703 19.8137 121.973 19.8371 122.252 19.8612C122.669 19.8801 122.669 19.8801 123.096 19.8994C123.777 19.9321 124.458 19.9822 125.139 20.0358C125.49 20.7274 125.49 20.7274 125.849 21.4329C123.077 25.4501 120.293 29.4584 117.453 33.4296C116.298 35.0445 115.149 36.6634 114.008 38.2877C113.75 38.6542 113.492 39.0207 113.227 39.3984C112.724 40.1124 112.223 40.827 111.723 41.5422C111.496 41.8653 111.268 42.1883 111.034 42.5212C110.833 42.8078 110.632 43.0944 110.425 43.3897C109.111 45.1275 109.111 45.1275 108.12 45.3019C107.872 45.2965 107.625 45.291 107.37 45.2853C107.101 45.2819 106.832 45.2786 106.555 45.2751C106.275 45.2663 105.996 45.2575 105.709 45.2485C105.284 45.2414 105.284 45.2414 104.85 45.2342C104.152 45.2218 103.454 45.203 102.755 45.183C102.519 43.6646 102.809 42.871 103.7 41.6699C104.301 40.8954 104.915 40.1332 105.534 39.373C105.825 38.9972 105.825 38.9972 106.121 38.6138C106.301 38.3912 106.482 38.1686 106.668 37.9392C107.525 36.0116 106.383 33.7276 105.696 31.8536C105.503 31.3124 105.31 30.7712 105.117 30.23C104.813 29.3867 104.508 28.5437 104.202 27.7009C103.906 26.8812 103.613 26.0603 103.32 25.2394C103.228 24.9886 103.136 24.7379 103.041 24.4796C102.585 23.1984 102.25 22.0965 102.4 20.7344C102.755 20.3851 102.755 20.3851 103.383 20.3454C103.649 20.3473 103.915 20.3491 104.189 20.351C104.476 20.3521 104.764 20.3532 105.06 20.3544C105.362 20.3573 105.664 20.3603 105.975 20.3633C106.279 20.3648 106.582 20.3664 106.895 20.368C107.647 20.3722 108.399 20.3784 109.151 20.3851C110.248 22.6237 111.037 24.8819 111.757 27.2579C112.047 28.4583 112.047 28.4583 112.703 29.466C112.821 29.2796 112.939 29.0932 113.061 28.9012C113.607 28.0408 114.154 27.1817 114.702 26.3226C114.887 26.0295 115.073 25.7364 115.264 25.4345C115.639 24.8473 116.019 24.2631 116.404 23.682C116.771 23.1262 117.128 22.5638 117.473 21.9943C118.593 20.2864 119.338 19.7192 121.433 19.7903Z" fill="#020204"/>
<path d="M175.59 11.3042C177.7 11.3042 179.81 11.3042 181.985 11.3042C182.08 14.2166 181.714 16.9428 181.233 19.8135C181.154 20.2897 181.076 20.7661 180.999 21.2424C180.836 22.234 180.672 23.2252 180.506 24.2162C180.294 25.4832 180.086 26.7508 179.88 28.0187C179.72 28.9996 179.558 29.9803 179.395 30.9608C179.281 31.6542 179.167 32.3479 179.054 33.0415C178.983 33.4636 178.912 33.8858 178.839 34.3207C178.746 34.8761 178.746 34.8761 178.652 35.4428C178.14 37.7857 178.14 37.7857 177.366 38.5469C176.408 38.5725 175.459 38.5792 174.501 38.5688C174.232 38.5672 173.962 38.5656 173.685 38.564C173.017 38.5599 172.349 38.5536 171.681 38.5469C171.275 37.0599 171.394 35.8881 171.639 34.3747C171.676 34.1376 171.714 33.9006 171.753 33.6564C171.877 32.8767 172.005 32.0978 172.134 31.3188C172.221 30.7757 172.309 30.2325 172.396 29.6894C172.578 28.5529 172.763 27.4167 172.95 26.2808C173.188 24.8245 173.424 23.3677 173.658 21.9107C173.882 20.5206 174.107 19.1308 174.332 17.7411C174.375 17.4758 174.418 17.2105 174.462 16.9372C174.584 16.1871 174.706 15.4373 174.83 14.6875C174.899 14.2608 174.969 13.8341 175.041 13.3944C175.234 12.352 175.234 12.352 175.59 11.3042Z" fill="#020204"/>
<path d="M27.0788 35.0543C27.7893 35.4035 27.7893 35.4035 27.7893 35.4035L27.0788 35.0543Z" fill="#020204"/>
</svg>
